<svg xmlns="http://www.w3.org/2000/svg" width="117" height="28" viewBox="0 0 117 28" fill="none" role="img" aria-label="הג'וינט">
<path d="M8.683 27.7342H2.46565L0 3.96457H5.82267L7.71625 22.7453H8.67857C12.7496 22.7453 14.2529 21.0424 14.2529 15.2552V8.95354H9.60984V3.96013H20.0756V15.2507C20.0756 24.7985 15.9691 27.7298 8.67857 27.7298L8.683 27.7342ZM20.5501 27.7342V22.7408H22.7275C24.5856 22.7408 25.0867 21.9071 25.0867 19.6898V8.95354H22.049V3.96013H30.9094V20.4792C30.9094 26.0269 29.5524 27.7298 24.9803 27.7298H20.5501V27.7342ZM33.6987 18.0667V3.96013H39.5569V18.0667H33.6987ZM42.5281 27.7342V3.96013H48.3862V27.7298H42.5281V27.7342ZM56.5681 0V4.11978L54.3198 11.2906H50.5681L51.7832 0H56.5681ZM57.5038 27.7342H56.3242V22.7408H57.5038C62.1114 22.7408 63.362 19.9293 62.7544 15.2507L61.9695 8.9491H57.8985V3.9557H66.7234L70.2977 27.7254H64.7234L63.974 22.457H63.7966C63.0471 25.6677 61.2955 27.7254 57.5083 27.7254L57.5038 27.7342ZM89.584 27.7342H83.7613V8.95354H71.0428V3.96013H89.584V27.7298V27.7342ZM76.9763 14.1421V27.7298H71.1182V14.1421H76.9763Z" fill="#3ABDDC"/>
<path d="M116.214 4.01074H94.1118V27.7095H116.214V4.01074Z" fill="#00C1DE"/>
<path d="M106.658 21.2671H103.256V21.9678H106.658V21.2671Z" fill="white"/>
<path d="M107.509 22.519H102.409V23.2197H107.509V22.519Z" fill="white"/>
<path d="M108.777 23.6973H101.127V24.3979H108.777V23.6973Z" fill="white"/>
<mask id="mask0_joint_logo" style="mask-type:luminance" maskUnits="userSpaceOnUse" x="92" y="4" width="25" height="24">
<path d="M116.209 4.01318H92.5146V27.7119H116.209V4.01318Z" fill="white"/>
</mask>
<g mask="url(#mask0_joint_logo)">
<path d="M104.952 19.9261C101.945 19.9261 99.4575 17.7398 98.9786 14.8706H98.1626C98.646 18.1833 101.497 20.7288 104.952 20.7288C108.407 20.7288 111.254 18.1833 111.737 14.8706H110.921C110.442 17.7398 107.954 19.9261 104.948 19.9261" fill="white"/>
<path d="M105.504 9.27839C105.504 10.0988 105.264 10.4846 104.967 10.4846C104.67 10.4846 104.431 10.1121 104.431 9.27839C104.431 8.20077 104.967 7.32715 104.967 7.32715C104.967 7.32715 105.504 8.20077 105.504 9.27839Z" fill="white"/>
<path d="M99.1757 12.9356C99.1757 13.756 98.9363 14.1418 98.6391 14.1418C98.342 14.1418 98.1025 13.7649 98.1025 12.9356C98.1025 11.858 98.6391 10.9844 98.6391 10.9844C98.6391 10.9844 99.1757 11.858 99.1757 12.9356Z" fill="white"/>
<path d="M111.824 12.9185C111.824 13.7389 111.585 14.1247 111.288 14.1247C110.99 14.1247 110.751 13.7478 110.751 12.9185C110.751 11.8409 111.288 10.9673 111.288 10.9673C111.288 10.9673 111.824 11.8409 111.824 12.9185Z" fill="white"/>
<path d="M104.461 16.6443H104.847C105.441 16.6443 105.552 16.3339 105.552 15.3405V13.3538C105.552 12.4979 105.464 12.2097 104.781 12.2097H104.461V16.6443ZM103.663 11.54H104.954C106.248 11.54 106.355 11.9702 106.355 13.6554V15.376C106.355 16.8572 106.093 17.3228 104.825 17.3228H103.663V11.5445V11.54Z" fill="white"/>
<path d="M106.99 13.0099C106.99 12.2027 107.252 11.4888 108.343 11.4888C109.137 11.4888 109.505 11.8879 109.505 12.5398V13.1163H108.751V12.7172C108.751 12.3491 108.622 12.1185 108.285 12.1185C107.868 12.1185 107.788 12.4156 107.788 13.1118V15.9456C107.788 16.6241 108.006 16.7483 108.259 16.7483C108.556 16.7483 108.746 16.5398 108.746 16.0609V15.6618H109.5V16.3004C109.5 16.9079 109.252 17.3735 108.325 17.3735C107.318 17.3735 106.99 16.8369 106.99 15.9411V13.0187V13.0099Z" fill="white"/>
<path d="M102.891 11.54H102.089V15.9436C102.089 16.6221 101.871 16.7463 101.614 16.7463C101.317 16.7463 101.126 16.5379 101.126 16.0589V15.6598H100.373V16.2984C100.373 16.906 100.621 17.3716 101.548 17.3716C102.554 17.3716 102.887 16.835 102.887 15.9392V11.5445L102.891 11.54Z" fill="white"/>
<path d="M94.1125 23.7603H92.5205V27.7115H94.1125V23.7603Z" fill="#F8AE51"/>
<path d="M94.1125 19.814H92.5205V23.7652H94.1125V19.814Z" fill="#BD6095"/>
<path d="M94.1125 15.8613H92.5205V19.8126H94.1125V15.8613Z" fill="#E9485E"/>
<path d="M94.1125 7.96436H92.5205V11.9156H94.1125V7.96436Z" fill="#C5D984"/>
<path d="M94.1125 4.01074H92.5205V7.96201H94.1125V4.01074Z" fill="#00ABA3"/>
<path d="M94.1125 11.9106H92.5205V15.8619H94.1125V11.9106Z" fill="#0091CE"/>
</g>
</svg>
